PathFileType	4	(X/Y/Z)	Apose_0-124.trc
DataRate	CameraRate	NumFrames	NumMarkers	Units	OrigDataRate	OrigDataStartFrame	OrigNumFrames
30	30	8	22	m	30	46	124
Frame#	Time	Hip			RHip			RKnee			RAnkle			RBigToe			RSmallToe			RHeel			LHip			LKnee			LAnkle			LBigToe			LSmallToe			LHeel			Neck			Head			Nose			RShoulder			RElbow			RWrist			LShoulder			LElbow			LWrist		
		X1	Y1	Z1	X2	Y2	Z2	X3	Y3	Z3	X4	Y4	Z4	X5	Y5	Z5	X6	Y6	Z6	X7	Y7	Z7	X8	Y8	Z8	X9	Y9	Z9	X10	Y10	Z10	X11	Y11	Z11	X12	Y12	Z12	X13	Y13	Z13	X14	Y14	Z14	X15	Y15	Z15	X16	Y16	Z16	X17	Y17	Z17	X18	Y18	Z18	X19	Y19	Z19	X20	Y20	Z20	X21	Y21	Z21	X22	Y22	Z22
47	1.5666666666666669	0.817360753034657	0.8529585906150058	0.3452094601152238	0.8289510144041576	0.81638299117115	0.26071433314671716	0.8357319126306633	0.4760326251659075	0.269670758871096	0.8378588160759909	0.1096576204754552	0.28532788153456334	0.6744512662048711	0.03874214900714334	0.214377790437592	0.7325706333075485	0.031770249723246144	0.1692282728042381	0.8687744223760228	0.038872963935823256	0.29939089206789277	0.8135951510611635	0.8137038312921733	0.4356876571781978	0.8274047978350524	0.4899102916872641	0.42615685949997284	0.8477095748012783	0.11119821192743962	0.43099502756678665	0.6641877570695772	0.032586425614501986	0.4510476626696896	0.725624437487196	0.030661926377230534	0.516221635210742	0.8855988217020492	0.043289492016851366	0.421211472798275	0.8242047519074596	1.4604529634262138	0.35742031455620576	0.8144798071918129	1.6854087570575766	0.37935658210066925	0.7599336176001513	1.5761136127575488	0.2759968667184188	0.8616676964420538	1.3795837746823534	0.17910536461933002	0.8855744400217722	1.1888415477903558	-0.017030683440009423	0.8614048741936613	1.0971103126720805	-0.19799639800709115	0.8258296783071071	1.368771483489057	0.5372701660082501	0.8127741011213977	1.1662518814349248	0.730263765346387	0.7694900217556465	1.070578953870709	0.8862745743528093
48	1.6	0.8171688618748306	0.8529572521001746	0.34577538383154377	0.8284542787613838	0.8161266174080718	0.2613148076970733	0.8355451994833821	0.4755932000759523	0.27022167647558293	0.8377585354025547	0.10983949746416757	0.2854549183582854	0.6743074059909255	0.039011165776397794	0.21429027565810468	0.732423746915448	0.03201035661096953	0.1691804796018352	0.8687227482426235	0.0387175746133292	0.2991463197244183	0.8136148070576139	0.8134541723810507	0.43606017726413354	0.8278437608376511	0.4898137233914841	0.42651600355730984	0.84777337577286	0.11102487516600444	0.4306635674228679	0.664200731582457	0.03276317418866935	0.45184862964888833	0.7259486070009861	0.030658160111872477	0.5165987985775677	0.8860943355784194	0.043952849396475965	0.4220681062837501	0.8242986817508992	1.4606709682088916	0.35830988501461064	0.8138592999145524	1.6855313395963916	0.3798132723917074	0.7594196370850541	1.5758631396299192	0.27694192230607784	0.8622889090433058	1.3802054461931095	0.18028047810988662	0.8864437869659731	1.1880572474467188	-0.017847760841438316	0.8612769009920411	1.097086578321131	-0.19747461907528346	0.824687586287071	1.3684868226423335	0.5385390436737245	0.8112152114675143	1.1666791508949181	0.7293042148875417	0.7682245335095919	1.0704438928938433	0.8875890324712677
49	1.6333333333333333	0.8169392744526665	0.8530663922618021	0.3464147825355085	0.8279321263079211	0.8157363486435043	0.2621196892191531	0.8352598896377256	0.47679446595416436	0.27096394093824516	0.8377821400183283	0.11018840593309215	0.2855783628707563	0.6742100699968457	0.03906930915030568	0.21447027417851178	0.732247212268523	0.032241772722827994	0.16925906743633967	0.8686699845675568	0.03857438653456822	0.2988430694098404	0.8135283421483648	0.8131562236440637	0.43633585895272914	0.8281685203634035	0.48981353243586834	0.42697070675370485	0.8479445289862444	0.11099577437727491	0.4301467785912933	0.6626347861675268	0.03197449438713187	0.452390371842974	0.7263595535447119	0.030617175696941747	0.5169273574943716	0.8868307415245149	0.0449769470113787	0.4232192955615533	0.8244397768643321	1.460982076243582	0.3591529336876278	0.8131303924746374	1.6856446395435265	0.38012593050970556	0.7542571267807324	1.5760731772740808	0.28229636057696467	0.8628117377124378	1.3806904450523103	0.1810897898783469	0.8869883567492138	1.1875720651596777	-0.018436351706056633	0.8614796705424221	1.0970881664888459	-0.19706586494444658	0.8236804253383709	1.368289114833024	0.5397416549158129	0.8095740696572995	1.1669515112568014	0.7284219720115485	0.7672807399906548	1.0704230203603176	0.888550030863397
50	1.6666666666666667	0.8167181679331238	0.8532443344505094	0.3469920204033195	0.827457082525594	0.8153621459754022	0.2629295438793801	0.8349469489766002	0.4787519133772911	0.2717040002614097	0.8379513021840406	0.11068055045005547	0.2856631316330552	0.6742743365732479	0.03887526191992687	0.21486262516413282	0.7321533279450834	0.032366202383660704	0.16939530653173168	0.8686549564880254	0.038494530310165115	0.29852262421442244	0.8133713962971582	0.8129191103506568	0.436518120045693	0.8282881072259999	0.48989381000596527	0.4274326047955068	0.8482186100862801	0.11090708262259354	0.42950987771778326	0.6604860217590478	0.030778731933585907	0.4526561303896737	0.7267396632449791	0.030543463491685748	0.5171320193606022	0.8875737888538525	0.045992993343911576	0.4243276374022117	0.8245378861730613	1.461282120775112	0.35984760787811876	0.8124227657248707	1.68568767282544	0.3803291866118575	0.7453435213904929	1.576818257862093	0.2909518841357957	0.8630840485458726	1.3808827712404705	0.18143738368726312	0.8868957135338108	1.187553899866734	-0.018408754155078703	0.8618885506200723	1.0969786654137188	-0.19675717954604485	0.8229978701938001	1.3682162436028842	0.5406607872629047	0.8083113720401525	1.1668107824097118	0.7280577265540239	0.7666733247151618	1.0705534748224803	0.8893010461034462
51	1.7	0.8165261949723522	0.8534368679062846	0.34738544779453073	0.8270688534753202	0.8151152590311712	0.2635516411889228	0.8346568139387022	0.4802744083803877	0.27231883359745007	0.8382449940531679	0.11123012454542322	0.2857115168411054	0.6746054243676002	0.03842250172882524	0.2153977087284621	0.7322252501075892	0.032352569218871974	0.16951712885765413	0.8686567387514261	0.03847438813002493	0.2982638256503022	0.8131765543289233	0.812824281386093	0.43666608056165435	0.8282569626807856	0.4900162549903807	0.4278736550202829	0.8484983361439442	0.11045019401149833	0.4289087861488219	0.658715041563015	0.029887003405337283	0.4528825170853989	0.7269844621632408	0.030443443030112628	0.5171888908876103	0.8880514114970622	0.04664491865070807	0.42517867513485585	0.8244975285295757	1.461471899800376	0.36036957012788395	0.8118245125433751	1.68564112981558	0.3805350300266442	0.7344941285500112	1.578043770362116	0.3009346549624857	0.8630895202244824	1.3807461220883352	0.18143103269398594	0.8859578163607235	1.1881427024485176	-0.01743474003695414	0.862357499275956	1.0966429827606143	-0.19648587092870368	0.8226550316494968	1.3682505459675562	0.5411872759109646	0.8076484214011737	1.1661687158305607	0.7284430117315361	0.7664374398555258	1.0707987766648885	0.8900855718084058
52	1.7333333333333334	0.8163407269054129	0.8535915438098225	0.34757437214940995	0.8267529162099825	0.8150145980060972	0.263902751970012	0.8344237413304944	0.4807563641811695	0.27283816521196763	0.8386352094186776	0.11171909874981958	0.28571729719059397	0.6751904346594634	0.03775452592514347	0.21600986553860207	0.7324684566924669	0.03222830669298389	0.1695871821690279	0.8686298063975959	0.03849840814394243	0.29812782179073716	0.8129646954786254	0.8128745575545951	0.4368859019343953	0.8282514782600944	0.4900945884751975	0.42830292776061635	0.8486448373635939	0.10945651060336042	0.42850187008573026	0.6577975843426417	0.02966582004225628	0.4532470960189143	0.7270418517150757	0.030334730445827223	0.5171006813258858	0.8880419860403923	0.046725969769995476	0.42571204756390324	0.8242621950773342	1.4615031443595283	0.36074555344476245	0.8113123778215042	1.685521511685182	0.38086701400910844	0.7234188275782452	1.5796471412035176	0.31050721054635866	0.8627866197081788	1.3802723721825736	0.18115245747883726	0.8840352045030392	1.1894346893002732	-0.015314452357518462	0.8628173260644613	1.096073966741687	-0.19615728739731	0.8225164230067948	1.3683448009777244	0.5413718860015887	0.8073148137824222	1.1652731091514932	0.7292792441470312	0.7666267717651989	1.0710376374560764	0.8909237715133596
53	1.7666666666666666	0.8161403553092035	0.8536601132624824	0.34762489883626796	0.8264760825047858	0.815021420279363	0.26400541865380134	0.834285412483909	0.48030297799358895	0.2733350399898003	0.8390746095191881	0.1120892726199743	0.28566373420278396	0.6758080356182262	0.03702996810831615	0.21656441022935513	0.7327832945339979	0.0320347534154588	0.1696093817848283	0.8685414048266195	0.038578785380351574	0.2981246707300373	0.8127557668779117	0.8130142448552568	0.43725511551153995	0.8284431640049752	0.4900271328226326	0.42872410898162727	0.8485685544325183	0.10803977689847098	0.4283509222306482	0.6577967164117855	0.030002325629417955	0.45377078946163774	0.7269007855902658	0.03024852887194216	0.51689772399028	0.8874768859020227	0.04616736882068744	0.42589253437627983	0.8238562484202238	1.4613897720130624	0.36100038107601884	0.8108199009363641	1.6853569141615308	0.38135943981438974	0.7134072815476993	1.5814442878210329	0.3186035222074386	0.8621171317226466	1.3794928407649016	0.18062415974470264	0.8811950256326033	1.1913655696677747	-0.012161287839963727	0.8632744189688246	1.0954199563453295	-0.1956997211118404	0.8224220903943829	1.3684517603297432	0.5413607585431094	0.8068295895083559	1.1644608218098684	0.7300316867901908	0.7670362207778924	1.0711508022604925	0.8916604378436734
54	1.8	0.8159340883048575	0.8536138287844557	0.3476319510254943	0.8262354297344097	0.8150751585784441	0.26394976616719756	0.8342534409657171	0.47931121605208027	0.2738145453455456	0.8394750446170294	0.11234561991260307	0.28554766650366953	0.6760878630838684	0.036534617845160045	0.21681697741685219	0.7330157916841468	0.03182188564741104	0.1695889562754878	0.8684043323215548	0.03872017056244547	0.2982064649492465	0.8125719416096834	0.813170456359731	0.4377642909539664	0.8288787479014527	0.4897877214388203	0.4291236128281614	0.8482316141634071	0.10657226502743174	0.42843050863512194	0.6584792615557425	0.030461823952440716	0.45425742276096637	0.7265874644838144	0.03021673427686492	0.5166841059920744	0.8864776535206019	0.0450825375201916	0.42567279601204255	0.8233692855462114	1.4611879550642122	0.36116652850880543	0.8103163733150512	1.6852005336433462	0.38192368055028214	0.7059775574211482	1.5829886386944967	0.3243727907291017	0.8611025166200793	1.378528271185948	0.17989630374509724	0.8779274673714927	1.1935599877703595	-0.008554527851174337	0.8637414347648081	1.094933286734481	-0.19512214162458805	0.8222715004978612	1.368542050823896	0.5412998577802732	0.805958013555241	1.1638808503507518	0.7304158668330444	0.7671670685954283	1.0711225852776667	0.8921367277953018
